<svg xmlns="http://www.w3.org/2000/svg" width="188" height="473" fill="#c7d6eb" xmlns:v="https://vecta.io/nano"><circle cx="3.722" cy="4.326" r="3.524"/><circle cx="55.401" cy="4.326" r="3.524"/><circle cx="107.08" cy="4.326" r="3.524"/><circle cx="158.759" cy="4.326" r="3.524"/><circle cx="3.722" cy="56.005" r="3.524"/><circle cx="55.401" cy="56.005" r="3.524"/><circle cx="107.08" cy="56.005" r="3.524"/><circle cx="158.759" cy="56.005" r="3.524"/><circle cx="3.722" cy="107.684" r="3.524"/><circle cx="55.401" cy="107.684" r="3.524"/><circle cx="107.08" cy="107.684" r="3.524"/><circle cx="158.759" cy="107.684" r="3.524"/><circle cx="3.722" cy="159.363" r="3.524"/><circle cx="55.401" cy="159.363" r="3.524"/><circle cx="107.08" cy="159.363" r="3.524"/><circle cx="158.759" cy="159.363" r="3.524"/><circle cx="3.722" cy="211.042" r="3.524"/><circle cx="55.401" cy="211.042" r="3.524"/><circle cx="107.08" cy="211.042" r="3.524"/><circle cx="158.759" cy="211.042" r="3.524"/><circle cx="3.722" cy="262.722" r="3.524"/><circle cx="55.401" cy="262.722" r="3.524"/><circle cx="107.08" cy="262.722" r="3.524"/><circle cx="158.759" cy="262.722" r="3.524"/><circle cx="3.722" cy="314.401" r="3.524"/><circle cx="55.401" cy="314.401" r="3.524"/><circle cx="107.08" cy="314.401" r="3.524"/><circle cx="158.759" cy="314.401" r="3.524"/><circle cx="3.722" cy="366.08" r="3.524"/><circle cx="55.401" cy="366.08" r="3.524"/><circle cx="107.08" cy="366.08" r="3.524"/><circle cx="158.759" cy="366.08" r="3.524"/><circle cx="3.722" cy="417.759" r="3.524"/><circle cx="55.401" cy="417.759" r="3.524"/><circle cx="107.08" cy="417.759" r="3.524"/><circle cx="158.759" cy="417.759" r="3.524"/><circle cx="3.722" cy="469.438" r="3.524"/><circle cx="55.401" cy="469.438" r="3.524"/><circle cx="107.08" cy="469.438" r="3.524"/><circle cx="158.759" cy="469.438" r="3.524"/></svg>