<svg xmlns="http://www.w3.org/2000/svg" width="473" height="214" fill="#c7d6eb" xmlns:v="https://vecta.io/nano"><circle cx="468.636" cy="3.524" r="3.524" transform="rotate(90 468.636 3.524)"/><circle cx="468.636" cy="55.203" r="3.524" transform="rotate(90 468.636 55.203)"/><circle cx="468.636" cy="106.882" r="3.524" transform="rotate(90 468.636 106.882)"/><circle cx="468.636" cy="158.561" r="3.524" transform="rotate(90 468.636 158.561)"/><circle cx="468.636" cy="210.24" r="3.524" transform="rotate(90 468.636 210.24)"/><circle cx="416.957" cy="3.524" r="3.524" transform="rotate(90 416.957 3.524)"/><circle cx="416.957" cy="55.203" r="3.524" transform="rotate(90 416.957 55.203)"/><circle cx="416.957" cy="106.882" r="3.524" transform="rotate(90 416.957 106.882)"/><circle cx="416.957" cy="158.561" r="3.524" transform="rotate(90 416.957 158.561)"/><circle cx="416.957" cy="210.24" r="3.524" transform="rotate(90 416.957 210.24)"/><circle cx="365.278" cy="3.524" r="3.524" transform="rotate(90 365.278 3.524)"/><circle cx="365.278" cy="55.203" r="3.524" transform="rotate(90 365.278 55.203)"/><circle cx="365.278" cy="106.882" r="3.524" transform="rotate(90 365.278 106.882)"/><circle cx="365.278" cy="158.561" r="3.524" transform="rotate(90 365.278 158.561)"/><circle cx="365.278" cy="210.24" r="3.524" transform="rotate(90 365.278 210.24)"/><circle cx="313.599" cy="3.524" r="3.524" transform="rotate(90 313.599 3.524)"/><circle cx="313.599" cy="55.203" r="3.524" transform="rotate(90 313.599 55.203)"/><circle cx="313.599" cy="106.882" r="3.524" transform="rotate(90 313.599 106.882)"/><circle cx="313.599" cy="158.561" r="3.524" transform="rotate(90 313.599 158.561)"/><circle cx="313.599" cy="210.24" r="3.524" transform="rotate(90 313.599 210.24)"/><circle cx="261.92" cy="3.524" r="3.524" transform="rotate(90 261.92 3.524)"/><circle cx="261.92" cy="55.203" r="3.524" transform="rotate(90 261.92 55.203)"/><circle cx="261.92" cy="106.882" r="3.524" transform="rotate(90 261.92 106.882)"/><circle cx="261.92" cy="158.561" r="3.524" transform="rotate(90 261.92 158.561)"/><circle cx="261.92" cy="210.24" r="3.524" transform="rotate(90 261.92 210.24)"/><circle cx="210.24" cy="3.524" r="3.524" transform="rotate(90 210.24 3.524)"/><circle cx="210.24" cy="55.203" r="3.524" transform="rotate(90 210.24 55.203)"/><circle cx="210.24" cy="106.882" r="3.524" transform="rotate(90 210.24 106.882)"/><circle cx="210.24" cy="158.561" r="3.524" transform="rotate(90 210.24 158.561)"/><circle cx="210.24" cy="210.24" r="3.524" transform="rotate(90 210.24 210.24)"/><circle cx="158.561" cy="3.524" r="3.524" transform="rotate(90 158.561 3.524)"/><circle cx="158.561" cy="55.203" r="3.524" transform="rotate(90 158.561 55.203)"/><circle cx="158.561" cy="106.882" r="3.524" transform="rotate(90 158.561 106.882)"/><circle cx="158.561" cy="158.561" r="3.524" transform="rotate(90 158.561 158.561)"/><circle cx="158.561" cy="210.24" r="3.524" transform="rotate(90 158.561 210.24)"/><circle cx="106.882" cy="3.524" r="3.524" transform="rotate(90 106.882 3.524)"/><circle cx="106.882" cy="55.203" r="3.524" transform="rotate(90 106.882 55.203)"/><circle cx="106.882" cy="106.882" r="3.524" transform="rotate(90 106.882 106.882)"/><circle cx="106.882" cy="158.561" r="3.524" transform="rotate(90 106.882 158.561)"/><circle cx="106.882" cy="210.24" r="3.524" transform="rotate(90 106.882 210.24)"/><circle cx="55.203" cy="3.524" r="3.524" transform="rotate(90 55.203 3.524)"/><circle cx="55.203" cy="55.203" r="3.524" transform="rotate(90 55.203 55.203)"/><circle cx="55.203" cy="106.882" r="3.524" transform="rotate(90 55.203 106.882)"/><circle cx="55.203" cy="158.561" r="3.524" transform="rotate(90 55.203 158.561)"/><circle cx="55.203" cy="210.24" r="3.524" transform="rotate(90 55.203 210.24)"/><circle cx="3.524" cy="3.524" r="3.524" transform="rotate(90 3.524 3.524)"/><circle cx="3.524" cy="55.203" r="3.524" transform="rotate(90 3.524 55.203)"/><circle cx="3.524" cy="106.882" r="3.524" transform="rotate(90 3.524 106.882)"/><circle cx="3.524" cy="158.561" r="3.524" transform="rotate(90 3.524 158.561)"/><circle cx="3.524" cy="210.24" r="3.524" transform="rotate(90 3.524 210.24)"/></svg>